<svg xmlns="http://www.w3.org/2000/svg" xmlns:xlink="http://www.w3.org/1999/xlink" width="32" height="32" viewBox="0 0 32 32"><defs><radialGradient id="amex-b" cx="32.922%" cy="32.8%" r="66.895%" fx="32.922%" fy="32.8%"><stop offset="0%" stop-color="#34BBF2"/><stop offset="100%" stop-color="#004DCF"/></radialGradient><rect id="amex-a" width="32" height="32" rx="8"/></defs><g fill="none" fill-rule="evenodd"><mask id="amex-c" fill="#fff"><use xlink:href="#amex-a"/></mask><use fill="url(#amex-b)" xlink:href="#amex-a"/><use fill="#0095FF" xlink:href="#amex-a"/><g fill="#FFF" fill-rule="nonzero" mask="url(#amex-c)"><path d="M1.89 12.833l-.72-1.553-.6 1.553h1.32zm14.163-.717c-.083.117-.235.12-.36.12h-1.2v-.837h1.2c.12 0 .292.007.36.12a.23.23 0 0 1 .24.239c0 .207-.072.34-.24.358zm8.402.717l-.72-1.553-.6 1.553h1.32zM9.092 14.626h-.96v-3.107l-1.44 3.107h-.84L4.53 11.519v3.107h-2.04l-.36-.837H.21l-.36.837H-1.23l1.68-3.944h1.44l1.68 3.705v-3.705h1.561l1.2 2.63 1.2-2.63h1.56v3.944zm3.84 0h-3.12v-3.944h3.12v.837h-2.16v.717h2.16v.836h-2.16v.717h2.16v.837zm4.561-2.868c0 .615-.425.94-.72 1.075.256.041.435.18.48.24.175.25.198.426.24.836v.717h-.96v-.478c-.05-.257-.027-.598-.24-.837-.1-.09-.314-.12-.6-.12h-1.08v1.435h-.96v-3.944h2.16c.527 0 .887.013 1.2.24.3.125.48.383.48.836zm1.44 2.868h-.96v-3.944h.96v3.944zm11.283 0h-1.32l-1.8-2.988v2.988h-1.921l-.48-.837h-1.92l-.36.837h-1.08c-.495 0-1.08-.102-1.441-.478-.306-.293-.48-.747-.48-1.434 0-.615.104-1.15.48-1.554.34-.332.823-.478 1.44-.478h.96v.837h-.96c-.29.008-.486.06-.72.239-.117.169-.228.483-.24.956.012.363.097.667.24.836.18.186.446.234.72.24h.36l1.44-3.108h1.32l1.681 3.705v-3.705h1.44l1.68 2.749v-2.749h.96v3.944zm-31.446.717H.45l.36-.837h.72l.36.837h3.241v-.717l.36.717h1.56l.36-.717v.717h7.922v-1.434h.12c.138-.002.17.008.12.239v1.195h4.2v-.359c.294.197.81.356 1.441.359h1.8l.36-.837h.84l.36.837h3.361v-.837l.48.837h2.64V9.846h-2.64v.597l-.36-.597h-2.76v.597l-.36-.597h-3.6c-.625 0-1.164.085-1.561.358v-.358h-2.52v.358c-.325-.28-.703-.358-1.08-.358H6.93l-.72 1.434-.6-1.434h-2.88v.597l-.36-.597h-2.4l-1.201 2.629v2.868zm34.125 2.176h-1.8c-.126 0-.242.006-.36.12-.081.01-.12.1-.12.238 0 .125.085.222.24.24.071.057.18.066.36.119h.48c.546-.027.897.058 1.08.239.07.055.093.087.12.12v-1.076zm0 2.51c-.231.368-.682.538-1.32.597h-1.8v-.956h1.8c.203.052.33.029.36 0 .112-.106.159-.195.12-.359.039-.058-.008-.149-.12-.239-.027-.024-.127-.052-.24 0-.946-.082-2.061-.024-2.04-1.314-.021-.527.346-1.129 1.32-1.076h1.92v-.836h-1.8c-.493 0-.879.126-1.2.358v-.358h-2.521c-.453 0-.942.102-1.2.358v-.358h-4.681v.358c-.314-.3-.94-.358-1.2-.358h-3.12v.358c-.269-.317-.92-.358-1.321-.358h-3.48l-.72.836-.721-.836H5.77v5.497h5.04l.841-.837.72.837h3.12v-1.315h.24c.464.029.95.012 1.321-.12v1.435h2.64v-1.434h.12c.137-.001.152.005.12.12v1.314h7.802c.498-.003 1.014-.128 1.32-.359v.359h2.4c.559-.003 1.06-.074 1.44-.24v-1.075zm-3.72-1.435c.14.142.24.382.24.837 0 .799-.539 1.195-1.561 1.195h-1.8v-.837h1.8c.23-.009.36-.033.48-.12.026-.048.073-.136.12-.238a1.137 1.137 0 0 0-.12-.24.57.57 0 0 0-.36-.119c-.92-.025-2.04.032-2.04-1.195 0-.593.365-1.195 1.32-1.195h1.92v.837h-1.68c-.203.003-.316.01-.36.12-.157.018-.196.113-.24.238.044.148.133.25.24.24.114.088.223.098.36.119h.6c.46.005.817.094 1.08.358zm-8.762-.478c-.08.114-.236.12-.36.12h-1.2v-.837h1.2c.124 0 .291.004.36.12.167.008.24.123.24.239 0 .203-.073.331-.24.358zm.6.717a.81.81 0 0 1 .48.24c.166.244.185.423.24.716v.837h-.96v-.478c-.049-.253-.026-.604-.24-.837-.102-.092-.315-.126-.72-.12h-.96v1.435h-.96v-3.944h2.16c.525 0 .876.021 1.2.24.29.126.48.372.48.836 0 .616-.425.937-.72 1.075zm1.32-2.15h3.12v.836h-2.16v.717h2.16v.836h-2.16v.717h2.16v.837h-3.12v-3.944zm-6.481 1.672h-1.2V17.4h1.2c.364 0 .6.132.6.478 0 .307-.225.478-.6.478zm-2.16 1.793l-1.44-1.554 1.44-1.553v3.107zM9.97 19.67h-2.4v-.717h2.16v-.837H7.57V17.4h2.4l1.08 1.076-1.08 1.195zm7.441-1.673c0 1.08-.821 1.306-1.68 1.314h-1.2v1.315h-1.8L11.53 19.31l-1.2 1.315H6.61v-3.944h3.84l1.08 1.315 1.2-1.315h3.12c.717 0 1.561.207 1.561 1.315z"/></g></g></svg>