<?xml version="1.0" encoding="UTF-8"?>
<svg width="112px" height="30px" viewBox="0 0 112 30" version="1.1" xmlns="http://www.w3.org/2000/svg" xmlns:xlink="http://www.w3.org/1999/xlink">
    <!-- Generator: Sketch 57 (83077) - https://sketch.com -->
    <title>merchant-logo</title>
    <desc>Created with Sketch.</desc>
    <g id="Page-1" stroke="none" stroke-width="1" fill="none" fill-rule="evenodd">
        <g id="Checkout-large-screens" transform="translate(-694.000000, -60.000000)" fill="#FFFFFF" fill-rule="nonzero">
            <path d="M735.1135,81.924 L737.6315,81.924 L737.2145,79.992 L737.2145,68.477 L734.8065,68.477 L734.8065,73.73 C734.0805,72.9 733.0845,72.413 731.9075,72.413 C729.4985,72.413 727.6325,74.38 727.6325,77.268 C727.6325,80.156 729.4985,82.123 731.9075,82.123 C733.1035,82.123 734.1355,81.618 734.8615,80.751 L735.1145,81.925 L735.1135,81.924 Z M782.7345,74.994 C783.2235,74.994 783.6755,75.119 784.0925,75.408 L785.2345,72.863 C784.7075,72.537 784.0925,72.394 783.4945,72.394 C782.4085,72.394 781.5025,72.88 780.9235,73.784 L780.6695,72.609 L778.1865,72.609 L778.5855,74.433 L778.5855,81.923 L780.9935,81.923 L780.9935,75.985 C781.3205,75.371 781.9355,74.993 782.7335,74.993 L782.7335,74.993 L782.7335,74.993 L782.7345,74.994 Z M789.7975,79.614 C788.4045,79.614 787.3705,78.693 787.3705,77.267 C787.3705,75.823 788.4045,74.921 789.7975,74.921 C791.2115,74.921 792.2255,75.823 792.2255,77.267 C792.2255,78.693 791.2115,79.613 789.7985,79.613 L789.7985,79.613 L789.7975,79.614 Z M729.9685,77.267 C729.9685,75.823 731.0015,74.921 732.3955,74.921 C733.8095,74.921 734.8225,75.823 734.8225,77.267 C734.8225,78.693 733.8095,79.613 732.3965,79.613 C731.0015,79.613 729.9685,78.693 729.9685,77.267 Z M800.4675,79.614 C799.0725,79.614 798.0405,78.693 798.0405,77.267 C798.0405,75.823 799.0725,74.921 800.4675,74.921 C801.8795,74.921 802.8945,75.823 802.8945,77.267 C802.8945,78.693 801.8795,79.613 800.4675,79.613 L800.4675,79.614 Z M743.4825,74.776 C744.7325,74.776 745.5475,75.353 745.8015,76.418 L741.1645,76.418 C741.4365,75.353 742.2505,74.776 743.4825,74.776 Z M772.3015,74.776 C773.5515,74.776 774.3665,75.353 774.6205,76.418 L769.9835,76.418 C770.2555,75.353 771.0695,74.776 772.3015,74.776 Z M760.5455,81.924 L764.4215,81.924 L766.9405,72.61 L764.3135,72.61 L762.4665,80.155 L760.6195,72.61 L758.0275,72.61 L760.5465,81.924 L760.5455,81.924 Z M754.3325,81.924 L756.7405,81.924 L756.7405,72.61 L754.3325,72.61 L754.3325,81.924 Z M743.8505,82.096 C745.1925,82.096 746.5145,81.735 747.6195,81.031 L746.6955,78.974 C745.8255,79.425 744.8665,79.696 743.8875,79.696 C742.6215,79.696 741.7335,79.209 741.3525,78.306 L748.1265,78.306 C748.1985,77.963 748.2355,77.62 748.2355,77.205 C748.2355,74.317 746.2245,72.386 743.5255,72.386 C740.8095,72.386 738.8165,74.335 738.8165,77.241 C738.8165,80.201 740.7905,82.096 743.8525,82.096 L743.8515,82.096 L743.8505,82.096 Z M805.2315,77.267 C805.2315,74.379 803.2025,72.412 800.4675,72.412 C797.7315,72.412 795.7035,74.379 795.7035,77.267 C795.7035,80.155 797.7315,82.122 800.4675,82.122 C803.2025,82.122 805.2315,80.155 805.2315,77.267 Z M772.6265,82.122 C773.9665,82.122 775.2895,81.761 776.3955,81.057 L775.4705,78.999 C774.6005,79.45 773.6415,79.721 772.6625,79.721 C771.3955,79.721 770.5085,79.234 770.1275,78.331 L776.9015,78.331 C776.9775,77.969 777.0135,77.6 777.0105,77.23 C777.0105,74.342 774.9995,72.411 772.3005,72.411 C769.5845,72.411 767.5915,74.36 767.5915,77.266 C767.5915,80.226 769.5665,82.121 772.6275,82.121 L772.6275,82.123 L772.6265,82.122 Z M789.7985,82.122 C792.5335,82.122 794.5615,80.155 794.5615,77.267 C794.5615,74.379 792.5335,72.412 789.7975,72.412 C787.0625,72.412 785.0335,74.379 785.0335,77.267 C785.0335,80.155 787.0625,82.122 789.7975,82.122 L789.7985,82.122 Z M749.7675,81.924 L752.1755,81.924 L752.1755,68.476 L749.7675,68.476 L749.7675,81.923 L749.7675,81.924 Z M755.5455,71.328 C756.3955,71.328 757.0485,70.678 757.0485,69.811 C757.0485,68.945 756.3965,68.295 755.5455,68.295 C754.6755,68.295 754.0235,68.945 754.0235,69.811 C754.0235,70.678 754.6765,71.327 755.5455,71.327 L755.5455,71.327 L755.5455,71.328 Z M714.1595,60 L712.7805,72.906 L710.4265,62.025 L703.0515,63.568 L705.4025,74.448 L694.7685,76.67 L696.6465,85.361 L715.3475,89.268 L719.6245,79.825 L721.6605,60.776 L714.1595,60 Z M708.2505,78.723 C707.8645,79.07 707.3545,79.039 706.8145,78.861 C706.2735,78.685 706.0345,78.042 706.2385,77.266 C706.3905,76.69 707.1085,76.603 707.4675,76.598 C707.6035,76.595 707.7375,76.622 707.8615,76.677 C708.1155,76.79 708.5445,77.031 708.6325,77.399 C708.7575,77.929 708.6365,78.375 708.2505,78.722 L708.2505,78.722 L708.2505,78.722 L708.2505,78.723 Z M713.6645,79.321 C713.3845,79.8 712.6485,79.864 711.9255,79.515 C711.4375,79.28 711.4415,78.682 711.4945,78.318 C711.5235,78.119 711.6045,77.931 711.7305,77.774 C711.9055,77.557 712.1955,77.274 712.5315,77.265 C713.0785,77.25 713.5485,77.492 713.8145,77.928 C714.0805,78.363 713.9475,78.842 713.6675,79.321 L713.6655,79.321 L713.6645,79.321 Z" id="merchant-logo"></path>
        </g>
    </g>
</svg>