<svg xmlns="http://www.w3.org/2000/svg" xmlns:xlink="http://www.w3.org/1999/xlink" width="32" height="32" viewBox="0 0 32 32"><defs><path id="visa-a" d="M15.73 17.442c-.014-1.114.987-1.736 1.741-2.106.775-.379 1.035-.622 1.032-.961-.006-.52-.618-.749-1.19-.758-1-.015-1.581.272-2.043.489l-.36-1.695c.463-.215 1.322-.403 2.212-.411 2.088 0 3.455 1.038 3.463 2.647.008 2.042-2.807 2.155-2.788 3.068.007.276.27.572.844.647.285.038 1.07.067 1.961-.346l.35 1.64A5.3 5.3 0 0 1 19.09 20c-1.966 0-3.35-1.052-3.36-2.558m8.58 2.417a.906.906 0 0 1-.846-.568l-2.984-7.17h2.087l.416 1.155h2.55l.242-1.155h1.84l-1.606 7.738H24.31m.292-2.09l.603-2.906h-1.65l1.047 2.905M13.2 19.858l-1.646-7.737h1.99l1.644 7.738H13.2m-2.943 0l-2.07-5.267-.838 4.478c-.098.5-.486.789-.917.789H3.047L3 19.634c.695-.152 1.484-.397 1.962-.658.293-.16.377-.3.473-.68L7.02 12.12h2.102l3.223 7.738h-2.089"/></defs><g fill="none" fill-rule="evenodd"><rect width="32" height="32" fill="#1D18F5" rx="8"/><use fill="#FFF" transform="matrix(1 0 0 -1 0 32)" xlink:href="#visa-a"/></g></svg>